<mxfile host="app.diagrams.net" agent="Mozilla/5.0 (Windows NT 10.0; Win64; x64) AppleWebKit/537.36 (KHTML, like Gecko) Chrome/131.0.0.0 Safari/537.36" version="26.0.7">
  <diagram name="Page-1" id="eKElY0mHCcRenVaTIlQr">
    <mxGraphModel dx="1999" dy="1649" grid="1" gridSize="10" guides="1" tooltips="1" connect="1" arrows="1" fold="1" page="1" pageScale="1" pageWidth="850" pageHeight="1100" math="0" shadow="0">
      <root>
        <mxCell id="0" />
        <mxCell id="1" parent="0" />
        <mxCell id="6OKH5Lpus-VSVOU8WEvr-1" value="" style="ellipse;whiteSpace=wrap;html=1;aspect=fixed;" vertex="1" parent="1">
          <mxGeometry x="50" y="130" width="100" height="100" as="geometry" />
        </mxCell>
        <mxCell id="6OKH5Lpus-VSVOU8WEvr-2" value="" style="ellipse;whiteSpace=wrap;html=1;aspect=fixed;" vertex="1" parent="1">
          <mxGeometry x="230" y="130" width="100" height="100" as="geometry" />
        </mxCell>
        <mxCell id="6OKH5Lpus-VSVOU8WEvr-3" value="" style="ellipse;whiteSpace=wrap;html=1;aspect=fixed;" vertex="1" parent="1">
          <mxGeometry x="410" y="40" width="100" height="100" as="geometry" />
        </mxCell>
        <mxCell id="6OKH5Lpus-VSVOU8WEvr-4" value="" style="ellipse;whiteSpace=wrap;html=1;aspect=fixed;" vertex="1" parent="1">
          <mxGeometry x="410" y="190" width="100" height="100" as="geometry" />
        </mxCell>
        <mxCell id="6OKH5Lpus-VSVOU8WEvr-65" value="" style="edgeStyle=orthogonalEdgeStyle;rounded=0;orthogonalLoop=1;jettySize=auto;html=1;" edge="1" parent="1" source="6OKH5Lpus-VSVOU8WEvr-5" target="6OKH5Lpus-VSVOU8WEvr-13">
          <mxGeometry relative="1" as="geometry" />
        </mxCell>
        <mxCell id="6OKH5Lpus-VSVOU8WEvr-5" value="" style="ellipse;whiteSpace=wrap;html=1;aspect=fixed;" vertex="1" parent="1">
          <mxGeometry x="590" y="190" width="100" height="100" as="geometry" />
        </mxCell>
        <mxCell id="6OKH5Lpus-VSVOU8WEvr-6" value="" style="ellipse;whiteSpace=wrap;html=1;aspect=fixed;" vertex="1" parent="1">
          <mxGeometry x="590" y="40" width="100" height="100" as="geometry" />
        </mxCell>
        <mxCell id="6OKH5Lpus-VSVOU8WEvr-7" value="sBurstOn:&lt;div&gt;outRst = rst&lt;/div&gt;&lt;div&gt;pwmOut =1&lt;/div&gt;" style="text;html=1;align=center;verticalAlign=middle;whiteSpace=wrap;rounded=0;" vertex="1" parent="1">
          <mxGeometry x="420" y="70" width="80" height="30" as="geometry" />
        </mxCell>
        <mxCell id="6OKH5Lpus-VSVOU8WEvr-8" value="sInit:&lt;div&gt;outRst = rst&lt;/div&gt;&lt;div&gt;pwmOut = 0&lt;/div&gt;" style="text;html=1;align=center;verticalAlign=middle;whiteSpace=wrap;rounded=0;" vertex="1" parent="1">
          <mxGeometry x="240" y="160" width="80" height="30" as="geometry" />
        </mxCell>
        <mxCell id="6OKH5Lpus-VSVOU8WEvr-9" value="sIdle:&lt;div&gt;outRst = rst&lt;/div&gt;&lt;div&gt;pwmOut = 0&lt;/div&gt;" style="text;html=1;align=center;verticalAlign=middle;whiteSpace=wrap;rounded=0;" vertex="1" parent="1">
          <mxGeometry x="60" y="165" width="80" height="30" as="geometry" />
        </mxCell>
        <mxCell id="6OKH5Lpus-VSVOU8WEvr-11" value="sOn:&lt;div&gt;outRst = rst&lt;/div&gt;&lt;div&gt;pwmOut = 1&lt;/div&gt;" style="text;html=1;align=center;verticalAlign=middle;whiteSpace=wrap;rounded=0;" vertex="1" parent="1">
          <mxGeometry x="420" y="220" width="80" height="30" as="geometry" />
        </mxCell>
        <mxCell id="6OKH5Lpus-VSVOU8WEvr-12" value="sOff:&lt;div&gt;outRst = rst&lt;/div&gt;&lt;div&gt;pwmOut = 0&lt;/div&gt;" style="text;html=1;align=center;verticalAlign=middle;whiteSpace=wrap;rounded=0;" vertex="1" parent="1">
          <mxGeometry x="600" y="220" width="80" height="30" as="geometry" />
        </mxCell>
        <mxCell id="6OKH5Lpus-VSVOU8WEvr-13" value="sBurstOff:&lt;div&gt;outRst = rst&lt;/div&gt;&lt;div&gt;pwmOut = 0&lt;/div&gt;" style="text;html=1;align=center;verticalAlign=middle;whiteSpace=wrap;rounded=0;" vertex="1" parent="1">
          <mxGeometry x="600" y="70" width="80" height="30" as="geometry" />
        </mxCell>
        <mxCell id="6OKH5Lpus-VSVOU8WEvr-14" value="" style="endArrow=classic;html=1;rounded=0;exitX=1;exitY=0.5;exitDx=0;exitDy=0;entryX=0;entryY=0.5;entryDx=0;entryDy=0;" edge="1" parent="1" source="6OKH5Lpus-VSVOU8WEvr-1" target="6OKH5Lpus-VSVOU8WEvr-2">
          <mxGeometry width="50" height="50" relative="1" as="geometry">
            <mxPoint x="150" y="190" as="sourcePoint" />
            <mxPoint x="200" y="140" as="targetPoint" />
          </mxGeometry>
        </mxCell>
        <mxCell id="6OKH5Lpus-VSVOU8WEvr-15" value="" style="endArrow=classic;html=1;rounded=0;exitX=1;exitY=0.5;exitDx=0;exitDy=0;" edge="1" parent="1">
          <mxGeometry width="50" height="50" relative="1" as="geometry">
            <mxPoint x="510" y="234.5" as="sourcePoint" />
            <mxPoint x="590" y="233" as="targetPoint" />
          </mxGeometry>
        </mxCell>
        <mxCell id="6OKH5Lpus-VSVOU8WEvr-16" value="" style="endArrow=classic;html=1;rounded=0;exitX=1;exitY=0.5;exitDx=0;exitDy=0;" edge="1" parent="1">
          <mxGeometry width="50" height="50" relative="1" as="geometry">
            <mxPoint x="510" y="85.75" as="sourcePoint" />
            <mxPoint x="590" y="84" as="targetPoint" />
          </mxGeometry>
        </mxCell>
        <mxCell id="6OKH5Lpus-VSVOU8WEvr-17" value="" style="endArrow=classic;html=1;rounded=0;exitX=1;exitY=0.5;exitDx=0;exitDy=0;entryX=0.02;entryY=0.71;entryDx=0;entryDy=0;entryPerimeter=0;" edge="1" parent="1" target="6OKH5Lpus-VSVOU8WEvr-3">
          <mxGeometry width="50" height="50" relative="1" as="geometry">
            <mxPoint x="323" y="151.5" as="sourcePoint" />
            <mxPoint x="420" y="150" as="targetPoint" />
          </mxGeometry>
        </mxCell>
        <mxCell id="6OKH5Lpus-VSVOU8WEvr-18" value="" style="endArrow=classic;html=1;rounded=0;exitX=1;exitY=0.5;exitDx=0;exitDy=0;entryX=0.003;entryY=0.353;entryDx=0;entryDy=0;entryPerimeter=0;" edge="1" parent="1" target="6OKH5Lpus-VSVOU8WEvr-4">
          <mxGeometry width="50" height="50" relative="1" as="geometry">
            <mxPoint x="323" y="201.5" as="sourcePoint" />
            <mxPoint x="420" y="200" as="targetPoint" />
          </mxGeometry>
        </mxCell>
        <mxCell id="6OKH5Lpus-VSVOU8WEvr-19" value="Text" style="text;html=1;align=center;verticalAlign=middle;whiteSpace=wrap;rounded=0;" vertex="1" parent="1">
          <mxGeometry x="-610" y="200" width="60" height="30" as="geometry" />
        </mxCell>
        <mxCell id="6OKH5Lpus-VSVOU8WEvr-20" value="rst = 0" style="text;html=1;align=center;verticalAlign=middle;whiteSpace=wrap;rounded=0;" vertex="1" parent="1">
          <mxGeometry x="160" y="150" width="60" height="30" as="geometry" />
        </mxCell>
        <mxCell id="6OKH5Lpus-VSVOU8WEvr-21" value="onTime != 0" style="text;html=1;align=center;verticalAlign=middle;whiteSpace=wrap;rounded=0;" vertex="1" parent="1">
          <mxGeometry x="425" y="330" width="60" height="30" as="geometry" />
        </mxCell>
        <mxCell id="6OKH5Lpus-VSVOU8WEvr-22" value="" style="curved=1;endArrow=classic;html=1;rounded=0;" edge="1" parent="1" source="6OKH5Lpus-VSVOU8WEvr-4" target="6OKH5Lpus-VSVOU8WEvr-4">
          <mxGeometry width="50" height="50" relative="1" as="geometry">
            <mxPoint x="420" y="350" as="sourcePoint" />
            <mxPoint x="470" y="300" as="targetPoint" />
            <Array as="points">
              <mxPoint x="470" y="350" />
              <mxPoint x="420" y="300" />
            </Array>
          </mxGeometry>
        </mxCell>
        <mxCell id="6OKH5Lpus-VSVOU8WEvr-23" value="offTime = 0 &amp;amp;&amp;amp; modeBurst = 0" style="text;html=1;align=center;verticalAlign=middle;whiteSpace=wrap;rounded=0;" vertex="1" parent="1">
          <mxGeometry x="530" y="280" width="60" height="30" as="geometry" />
        </mxCell>
        <mxCell id="6OKH5Lpus-VSVOU8WEvr-26" value="offTime != 0" style="text;html=1;align=center;verticalAlign=middle;whiteSpace=wrap;rounded=0;" vertex="1" parent="1">
          <mxGeometry x="595" y="330" width="60" height="30" as="geometry" />
        </mxCell>
        <mxCell id="6OKH5Lpus-VSVOU8WEvr-27" value="" style="curved=1;endArrow=classic;html=1;rounded=0;entryX=0;entryY=1;entryDx=0;entryDy=0;" edge="1" parent="1" target="6OKH5Lpus-VSVOU8WEvr-5">
          <mxGeometry width="50" height="50" relative="1" as="geometry">
            <mxPoint x="634" y="290" as="sourcePoint" />
            <mxPoint x="602" y="282" as="targetPoint" />
            <Array as="points">
              <mxPoint x="640" y="350" />
              <mxPoint x="590" y="300" />
            </Array>
          </mxGeometry>
        </mxCell>
        <mxCell id="6OKH5Lpus-VSVOU8WEvr-29" value="" style="endArrow=classic;html=1;rounded=0;exitX=0.033;exitY=0.723;exitDx=0;exitDy=0;exitPerimeter=0;entryX=1.023;entryY=0.695;entryDx=0;entryDy=0;entryPerimeter=0;" edge="1" parent="1" source="6OKH5Lpus-VSVOU8WEvr-5" target="6OKH5Lpus-VSVOU8WEvr-4">
          <mxGeometry width="50" height="50" relative="1" as="geometry">
            <mxPoint x="520" y="320" as="sourcePoint" />
            <mxPoint x="570" y="270" as="targetPoint" />
          </mxGeometry>
        </mxCell>
        <mxCell id="6OKH5Lpus-VSVOU8WEvr-30" value="burstOnTime = 0" style="text;html=1;align=center;verticalAlign=middle;whiteSpace=wrap;rounded=0;" vertex="1" parent="1">
          <mxGeometry x="520" y="50" width="60" height="30" as="geometry" />
        </mxCell>
        <mxCell id="6OKH5Lpus-VSVOU8WEvr-31" value="burstCounter= 0" style="text;html=1;align=center;verticalAlign=middle;whiteSpace=wrap;rounded=0;" vertex="1" parent="1">
          <mxGeometry x="470" y="160" width="90" height="30" as="geometry" />
        </mxCell>
        <mxCell id="6OKH5Lpus-VSVOU8WEvr-37" value="burstOnTime != 0" style="text;html=1;align=center;verticalAlign=middle;whiteSpace=wrap;rounded=0;" vertex="1" parent="1">
          <mxGeometry x="366.9" y="16.900000000000006" width="60" height="30" as="geometry" />
        </mxCell>
        <mxCell id="6OKH5Lpus-VSVOU8WEvr-38" value="" style="curved=1;endArrow=classic;html=1;rounded=0;entryX=0.079;entryY=0.146;entryDx=0;entryDy=0;entryPerimeter=0;" edge="1" parent="1" source="6OKH5Lpus-VSVOU8WEvr-3" target="6OKH5Lpus-VSVOU8WEvr-3">
          <mxGeometry width="50" height="50" relative="1" as="geometry">
            <mxPoint x="355.00000000000034" y="-2.842170943040401e-14" as="sourcePoint" />
            <mxPoint x="320.00000000000034" y="22.700000000000074" as="targetPoint" />
            <Array as="points">
              <mxPoint x="376.9" y="79.9" />
              <mxPoint x="326.9" y="29.900000000000006" />
            </Array>
          </mxGeometry>
        </mxCell>
        <mxCell id="6OKH5Lpus-VSVOU8WEvr-39" value="burstOffTime = 0" style="text;html=1;align=center;verticalAlign=middle;whiteSpace=wrap;rounded=0;" vertex="1" parent="1">
          <mxGeometry x="527.5" y="100" width="60" height="30" as="geometry" />
        </mxCell>
        <mxCell id="6OKH5Lpus-VSVOU8WEvr-40" value="" style="endArrow=classic;html=1;rounded=0;exitX=0.033;exitY=0.723;exitDx=0;exitDy=0;exitPerimeter=0;entryX=1.005;entryY=0.62;entryDx=0;entryDy=0;entryPerimeter=0;" edge="1" parent="1" target="6OKH5Lpus-VSVOU8WEvr-3">
          <mxGeometry width="50" height="50" relative="1" as="geometry">
            <mxPoint x="590.5" y="102" as="sourcePoint" />
            <mxPoint x="509.5" y="99" as="targetPoint" />
          </mxGeometry>
        </mxCell>
        <mxCell id="6OKH5Lpus-VSVOU8WEvr-42" value="" style="endArrow=classic;html=1;rounded=0;exitX=1;exitY=1;exitDx=0;exitDy=0;entryX=0.203;entryY=0.146;entryDx=0;entryDy=0;entryPerimeter=0;" edge="1" parent="1" source="6OKH5Lpus-VSVOU8WEvr-3" target="6OKH5Lpus-VSVOU8WEvr-5">
          <mxGeometry width="50" height="50" relative="1" as="geometry">
            <mxPoint x="500" y="200" as="sourcePoint" />
            <mxPoint x="550" y="150" as="targetPoint" />
          </mxGeometry>
        </mxCell>
        <mxCell id="6OKH5Lpus-VSVOU8WEvr-43" value="onTime = 0" style="text;html=1;align=center;verticalAlign=middle;whiteSpace=wrap;rounded=0;" vertex="1" parent="1">
          <mxGeometry x="520" y="200" width="60" height="30" as="geometry" />
        </mxCell>
        <mxCell id="6OKH5Lpus-VSVOU8WEvr-44" value="" style="endArrow=none;dashed=1;html=1;dashPattern=1 3;strokeWidth=2;rounded=0;" edge="1" parent="1">
          <mxGeometry width="50" height="50" relative="1" as="geometry">
            <mxPoint x="459.57" y="40" as="sourcePoint" />
            <mxPoint x="459.57" y="-20" as="targetPoint" />
          </mxGeometry>
        </mxCell>
        <mxCell id="6OKH5Lpus-VSVOU8WEvr-46" value="" style="endArrow=none;dashed=1;html=1;dashPattern=1 3;strokeWidth=2;rounded=0;" edge="1" parent="1">
          <mxGeometry width="50" height="50" relative="1" as="geometry">
            <mxPoint x="639.5699999999999" y="40" as="sourcePoint" />
            <mxPoint x="639.5699999999999" y="-20" as="targetPoint" />
          </mxGeometry>
        </mxCell>
        <mxCell id="6OKH5Lpus-VSVOU8WEvr-47" value="" style="endArrow=none;dashed=1;html=1;dashPattern=1 3;strokeWidth=2;rounded=0;" edge="1" parent="1">
          <mxGeometry width="50" height="50" relative="1" as="geometry">
            <mxPoint x="460" y="-20" as="sourcePoint" />
            <mxPoint x="640" y="-20" as="targetPoint" />
          </mxGeometry>
        </mxCell>
        <mxCell id="6OKH5Lpus-VSVOU8WEvr-48" value="" style="endArrow=none;dashed=1;html=1;dashPattern=1 3;strokeWidth=2;rounded=0;" edge="1" parent="1" source="6OKH5Lpus-VSVOU8WEvr-4">
          <mxGeometry width="50" height="50" relative="1" as="geometry">
            <mxPoint x="499.13" y="410" as="sourcePoint" />
            <mxPoint x="500" y="400" as="targetPoint" />
          </mxGeometry>
        </mxCell>
        <mxCell id="6OKH5Lpus-VSVOU8WEvr-49" value="" style="endArrow=none;dashed=1;html=1;dashPattern=1 3;strokeWidth=2;rounded=0;exitX=1;exitY=1;exitDx=0;exitDy=0;" edge="1" parent="1" source="6OKH5Lpus-VSVOU8WEvr-5">
          <mxGeometry width="50" height="50" relative="1" as="geometry">
            <mxPoint x="679.1299999999999" y="410" as="sourcePoint" />
            <mxPoint x="680" y="400" as="targetPoint" />
          </mxGeometry>
        </mxCell>
        <mxCell id="6OKH5Lpus-VSVOU8WEvr-50" value="" style="endArrow=none;dashed=1;html=1;dashPattern=1 3;strokeWidth=2;rounded=0;" edge="1" parent="1">
          <mxGeometry width="50" height="50" relative="1" as="geometry">
            <mxPoint x="500" y="400" as="sourcePoint" />
            <mxPoint x="750" y="400" as="targetPoint" />
          </mxGeometry>
        </mxCell>
        <mxCell id="6OKH5Lpus-VSVOU8WEvr-51" value="" style="endArrow=none;dashed=1;html=1;dashPattern=1 3;strokeWidth=2;rounded=0;" edge="1" parent="1">
          <mxGeometry width="50" height="50" relative="1" as="geometry">
            <mxPoint x="640" y="-20" as="sourcePoint" />
            <mxPoint x="750" y="-20" as="targetPoint" />
          </mxGeometry>
        </mxCell>
        <mxCell id="6OKH5Lpus-VSVOU8WEvr-52" value="" style="endArrow=none;dashed=1;html=1;dashPattern=1 3;strokeWidth=2;rounded=0;" edge="1" parent="1">
          <mxGeometry width="50" height="50" relative="1" as="geometry">
            <mxPoint x="750" y="-20" as="sourcePoint" />
            <mxPoint x="750" y="400" as="targetPoint" />
          </mxGeometry>
        </mxCell>
        <mxCell id="6OKH5Lpus-VSVOU8WEvr-53" value="" style="endArrow=none;dashed=1;html=1;dashPattern=1 3;strokeWidth=2;rounded=0;" edge="1" parent="1">
          <mxGeometry width="50" height="50" relative="1" as="geometry">
            <mxPoint x="90" y="400" as="sourcePoint" />
            <mxPoint x="500" y="400" as="targetPoint" />
          </mxGeometry>
        </mxCell>
        <mxCell id="6OKH5Lpus-VSVOU8WEvr-54" value="" style="endArrow=classic;html=1;rounded=0;entryX=0.416;entryY=1.049;entryDx=0;entryDy=0;entryPerimeter=0;" edge="1" parent="1" target="6OKH5Lpus-VSVOU8WEvr-1">
          <mxGeometry width="50" height="50" relative="1" as="geometry">
            <mxPoint x="90" y="400" as="sourcePoint" />
            <mxPoint x="140" y="350" as="targetPoint" />
          </mxGeometry>
        </mxCell>
        <mxCell id="6OKH5Lpus-VSVOU8WEvr-56" value="rst = 1" style="text;html=1;align=center;verticalAlign=middle;whiteSpace=wrap;rounded=0;" vertex="1" parent="1">
          <mxGeometry x="90" y="320" width="60" height="30" as="geometry" />
        </mxCell>
        <mxCell id="6OKH5Lpus-VSVOU8WEvr-58" value="" style="endArrow=none;dashed=1;html=1;dashPattern=1 3;strokeWidth=2;rounded=0;entryX=0.5;entryY=1;entryDx=0;entryDy=0;" edge="1" parent="1" target="6OKH5Lpus-VSVOU8WEvr-2">
          <mxGeometry width="50" height="50" relative="1" as="geometry">
            <mxPoint x="280" y="400" as="sourcePoint" />
            <mxPoint x="610" y="190" as="targetPoint" />
            <Array as="points">
              <mxPoint x="280" y="250" />
            </Array>
          </mxGeometry>
        </mxCell>
        <mxCell id="6OKH5Lpus-VSVOU8WEvr-59" value="rst = 1" style="text;html=1;align=center;verticalAlign=middle;whiteSpace=wrap;rounded=0;" vertex="1" parent="1">
          <mxGeometry x="20" y="110" width="60" height="30" as="geometry" />
        </mxCell>
        <mxCell id="6OKH5Lpus-VSVOU8WEvr-60" value="" style="curved=1;endArrow=classic;html=1;rounded=0;entryX=0.079;entryY=0.146;entryDx=0;entryDy=0;entryPerimeter=0;" edge="1" parent="1">
          <mxGeometry width="50" height="50" relative="1" as="geometry">
            <mxPoint x="52" y="180" as="sourcePoint" />
            <mxPoint x="60" y="151" as="targetPoint" />
            <Array as="points">
              <mxPoint x="18.899999999999977" y="175.9" />
              <mxPoint x="-31.100000000000023" y="125.9" />
            </Array>
          </mxGeometry>
        </mxCell>
        <mxCell id="6OKH5Lpus-VSVOU8WEvr-62" value="modeBurst = 1" style="text;html=1;align=center;verticalAlign=middle;whiteSpace=wrap;rounded=0;" vertex="1" parent="1">
          <mxGeometry x="320" y="100" width="60" height="30" as="geometry" />
        </mxCell>
        <mxCell id="6OKH5Lpus-VSVOU8WEvr-63" value="modeBurst = 0" style="text;html=1;align=center;verticalAlign=middle;whiteSpace=wrap;rounded=0;" vertex="1" parent="1">
          <mxGeometry x="350" y="180" width="60" height="30" as="geometry" />
        </mxCell>
        <mxCell id="6OKH5Lpus-VSVOU8WEvr-64" value="" style="endArrow=classic;html=1;rounded=0;entryX=0.932;entryY=0.703;entryDx=0;entryDy=0;entryPerimeter=0;exitX=0.29;exitY=0.026;exitDx=0;exitDy=0;exitPerimeter=0;" edge="1" parent="1" source="6OKH5Lpus-VSVOU8WEvr-5" target="6OKH5Lpus-VSVOU8WEvr-3">
          <mxGeometry width="50" height="50" relative="1" as="geometry">
            <mxPoint x="630" y="200" as="sourcePoint" />
            <mxPoint x="520" y="210" as="targetPoint" />
            <Array as="points" />
          </mxGeometry>
        </mxCell>
        <mxCell id="6OKH5Lpus-VSVOU8WEvr-66" value="&lt;font style=&quot;font-size: 10px;&quot;&gt;offTime = 0 &amp;amp;&amp;amp; modeBurst = 1&lt;/font&gt;" style="text;html=1;align=center;verticalAlign=middle;whiteSpace=wrap;rounded=0;" vertex="1" parent="1">
          <mxGeometry x="560" y="135" width="90" height="30" as="geometry" />
        </mxCell>
      </root>
    </mxGraphModel>
  </diagram>
</mxfile>
